<svg width="20" height="20" viewBox="0 0 20 20" fill="none" xmlns="http://www.w3.org/2000/svg">
<path d="M17.24 3.5825H16.84L13.46 0.2025C13.19 -0.0675 12.75 -0.0675 12.47 0.2025C12.2 0.4725 12.2 0.9125 12.47 1.1925L14.86 3.5825H5.14L7.53 1.1925C7.8 0.9225 7.8 0.4825 7.53 0.2025C7.26 -0.0675 6.82 -0.0675 6.54 0.2025L3.17 3.5825H2.77C1.87 3.5825 0 3.5825 0 6.1425C0 7.1125 0.2 7.7525 0.62 8.1725C0.86 8.4225 1.15 8.5525 1.46 8.6225C1.75 8.6925 2.06 8.7025 2.36 8.7025H17.64C17.95 8.7025 18.24 8.6825 18.52 8.6225C19.36 8.4225 20 7.8225 20 6.1425C20 3.5825 18.13 3.5825 17.24 3.5825Z" fill="#DBDBDB"/>
<path d="M17.0502 10.0024H2.87016C2.25016 10.0024 1.78016 10.5524 1.88016 11.1624L2.72016 16.3024C3.00016 18.0224 3.75015 20.0024 7.08015 20.0024H12.6902C16.0602 20.0024 16.6602 18.3124 17.0202 16.4224L18.0302 11.1924C18.1502 10.5724 17.6802 10.0024 17.0502 10.0024ZM8.61015 16.4524C8.61015 16.8424 8.30016 17.1524 7.92016 17.1524C7.53016 17.1524 7.22016 16.8424 7.22016 16.4524V13.1524C7.22016 12.7724 7.53016 12.4524 7.92016 12.4524C8.30016 12.4524 8.61015 12.7724 8.61015 13.1524V16.4524ZM12.8902 16.4524C12.8902 16.8424 12.5802 17.1524 12.1902 17.1524C11.8102 17.1524 11.4902 16.8424 11.4902 16.4524V13.1524C11.4902 12.7724 11.8102 12.4524 12.1902 12.4524C12.5802 12.4524 12.8902 12.7724 12.8902 13.1524V16.4524Z" fill="#DBDBDB"/>
</svg>
