<svg width="31" height="31" viewBox="0 0 31 31" fill="none" xmlns="http://www.w3.org/2000/svg">
  <g clip-path="url(#a)">
    <path d="M27.457 2.603H3.543c-.671 0-1.217.545-1.217 1.217v25.104c0 .672.546 1.217 1.217 1.217h23.914c.671 0 1.216-.545 1.216-1.217V3.82c0-.672-.545-1.217-1.216-1.217Z" fill="url(#b)"/>
    <path d="M27.456 30.14H3.543a1.217 1.217 0 0 1-1.216-1.216v-13.18h26.346v13.18c0 .672-.545 1.217-1.217 1.217Z" fill="url(#c)"/>
    <path d="M27.456 30.14H3.543a1.217 1.217 0 0 1-1.216-1.216v-2.555h26.346v2.555c0 .672-.545 1.217-1.217 1.217Z" fill="url(#d)"/>
    <path d="M29.783 27.18H1.217c-.781 0-1.36-.726-1.186-1.488l2.296-10.03h26.346l2.296 10.03a1.217 1.217 0 0 1-1.186 1.488Z" fill="url(#e)"/>
    <path d="M29.783 27.18H1.217c-.781 0-1.36-.726-1.186-1.488l2.296-10.03h26.346l2.296 10.03a1.217 1.217 0 0 1-1.186 1.488Z" fill="url(#f)"/>
    <path d="M29.783 27.18c.781 0 1.36-.726 1.185-1.488l-2.295-10.03H2.327L13.845 27.18h15.938Z" fill="url(#g)"/>
    <path d="M28.673 27.18H2.327v.04l2.92 2.92h22.21c.671 0 1.216-.544 1.216-1.216V27.18Z" fill="url(#h)"/>
    <path d="M9.211 18.075v-5.133c0-1.352.359-2.346 1.076-2.98.718-.636 1.676-.953 2.876-.953s2.16.317 2.884.952c.723.635 1.085 1.629 1.085 2.981v5.133c0 1.353-.362 2.347-1.085 2.982-.723.635-1.685.952-2.884.952-1.2 0-2.158-.317-2.876-.952-.717-.635-1.076-1.63-1.076-2.982Zm1.87 0c0 1.518.694 2.276 2.082 2.276.67 0 1.188-.188 1.552-.564.364-.377.547-.947.547-1.712v-5.133c0-.764-.183-1.334-.547-1.71-.364-.377-.882-.565-1.552-.565-1.388 0-2.082.758-2.082 2.275v5.133Zm7.197-6.403c0-.305.124-.546.37-.723l1.835-1.764a.647.647 0 0 1 .477-.194c.211 0 .402.056.573.168.17.111.256.261.256.45v11.677c0 .188-.095.338-.283.45a1.253 1.253 0 0 1-.652.167 1.24 1.24 0 0 1-.662-.167c-.182-.112-.273-.262-.273-.45v-9.808l-.618.776a.539.539 0 0 1-.388.177.554.554 0 0 1-.45-.238.829.829 0 0 1-.185-.52Z" fill="#fff"/>
    <path d="M15.261 15.662v2.413c0 .765-.181 1.335-.546 1.712-.364.376-.882.564-1.552.564-1.388 0-2.082-.759-2.082-2.276v-2.413H9.21v2.413c0 1.353.359 2.347 1.076 2.981.717.635 1.676.953 2.876.953 1.199 0 2.16-.318 2.884-.953.723-.634 1.085-1.628 1.085-2.98v-2.414h-1.87Z" fill="url(#i)"/>
    <path d="M19.919 15.662v5.624c0 .188.09.338.273.45.182.112.402.167.661.167.247 0 .465-.055.653-.167.188-.112.282-.262.282-.45v-5.624h-1.87Z" fill="url(#j)"/>
    <path d="m30.969 25.692-2.296-10.03V3.82c0-.672-.545-1.217-1.216-1.217h-.576c.672 0 1.217.545 1.217 1.217v11.842l2.295 10.03a1.217 1.217 0 0 1-1.186 1.488h.576c.781 0 1.36-.726 1.186-1.488Z" fill="url(#k)"/>
    <path d="M10.345 4.77a1.132 1.132 0 0 1-.36-.828V2.603h2.27l1.855 1.855c.591.591.924 1.393.924 2.23 0 .612-.472 1.138-1.084 1.166a1.133 1.133 0 0 1-.88-.36l-2.725-2.723Z" fill="url(#l)"/>
    <path d="M11.12 5.077a1.136 1.136 0 0 1-1.136-1.135V1.995a1.136 1.136 0 0 1 2.271 0v1.947c0 .627-.508 1.135-1.135 1.135Z" fill="url(#m)"/>
    <path d="M11.12.86v4.217c.627 0 1.135-.508 1.135-1.135V1.995c0-.627-.508-1.136-1.135-1.136Z" fill="url(#n)"/>
    <path d="M18.598 4.77a1.132 1.132 0 0 1-.36-.828V2.603h2.27l1.855 1.855c.591.591.924 1.393.924 2.23 0 .612-.472 1.138-1.084 1.166a1.133 1.133 0 0 1-.881-.36l-2.724-2.723Z" fill="url(#o)"/>
    <path d="M19.373 5.077a1.136 1.136 0 0 1-1.136-1.135V1.995a1.136 1.136 0 0 1 2.272 0v1.947c0 .627-.509 1.135-1.136 1.135Z" fill="url(#p)"/>
    <path d="M19.373.86v4.217c.627 0 1.136-.508 1.136-1.135V1.995c0-.627-.509-1.136-1.136-1.136Z" fill="url(#q)"/>
  </g>
  <defs>
    <linearGradient id="b" x1="10.916" y1="6.184" x2="17.936" y2="21.783" gradientUnits="userSpaceOnUse">
      <stop stop-color="#00A6F9"/>
      <stop offset="1" stop-color="#0071E2"/>
    </linearGradient>
    <linearGradient id="c" x1="6.497" y1="12.839" x2="24.586" y2="32.393" gradientUnits="userSpaceOnUse">
      <stop stop-color="#C2CECE"/>
      <stop offset="1" stop-color="#97AAAA"/>
    </linearGradient>
    <linearGradient id="d" x1="15.5" y1="29.797" x2="15.5" y2="27.099" gradientUnits="userSpaceOnUse">
      <stop stop-color="#C2CECE" stop-opacity="0"/>
      <stop offset=".179" stop-color="#AFBCBC" stop-opacity=".179"/>
      <stop offset="1" stop-color="#5B6A6A"/>
    </linearGradient>
    <linearGradient id="e" x1="4.184" y1="16.633" x2="33.209" y2="29.706" gradientUnits="userSpaceOnUse">
      <stop stop-color="#00A6F9"/>
      <stop offset="1" stop-color="#0071E2"/>
    </linearGradient>
    <linearGradient id="f" x1="15.5" y1="26.072" x2="15.5" y2="27.694" gradientUnits="userSpaceOnUse">
      <stop offset="0" stop-color="#008BF2" stop-opacity="0"/>
      <stop offset="1" stop-color="#0046E2"/>
    </linearGradient>
    <linearGradient id="g" x1="21.003" y1="21.164" x2="2.615" y2="2.776" gradientUnits="userSpaceOnUse">
      <stop offset="0" stop-color="#008BF2" stop-opacity="0"/>
      <stop offset="1" stop-color="#0046E2"/>
    </linearGradient>
    <linearGradient id="h" x1="13.566" y1="24.806" x2="10.553" y2="21.076" gradientUnits="userSpaceOnUse">
      <stop stop-color="#C2CECE" stop-opacity="0"/>
      <stop offset=".179" stop-color="#AFBCBC" stop-opacity=".179"/>
      <stop offset="1" stop-color="#5B6A6A"/>
    </linearGradient>
    <linearGradient id="i" x1="13.172" y1="17.732" x2="13.172" y2="8.475" gradientUnits="userSpaceOnUse">
      <stop stop-color="#C2CECE" stop-opacity="0"/>
      <stop offset=".179" stop-color="#AFBCBC" stop-opacity=".179"/>
      <stop offset="1" stop-color="#5B6A6A"/>
    </linearGradient>
    <linearGradient id="j" x1="20.854" y1="17.732" x2="20.854" y2="8.475" gradientUnits="userSpaceOnUse">
      <stop stop-color="#C2CECE" stop-opacity="0"/>
      <stop offset=".179" stop-color="#AFBCBC" stop-opacity=".179"/>
      <stop offset="1" stop-color="#5B6A6A"/>
    </linearGradient>
    <linearGradient id="k" x1="28.702" y1="14.816" x2="22.495" y2="16.438" gradientUnits="userSpaceOnUse">
      <stop offset="0" stop-color="#008BF2" stop-opacity="0"/>
      <stop offset="1" stop-color="#0046E2"/>
    </linearGradient>
    <linearGradient id="l" x1="13.439" y1="5.825" x2="11.034" y2="3.42" gradientUnits="userSpaceOnUse">
      <stop offset="0" stop-color="#008BF2" stop-opacity="0"/>
      <stop offset="1" stop-color="#0046E2"/>
    </linearGradient>
    <linearGradient id="m" x1="11.12" y1=".917" x2="11.12" y2="13.935" gradientUnits="userSpaceOnUse">
      <stop stop-color="#FFC200"/>
      <stop offset=".268" stop-color="#FB0"/>
      <stop offset=".659" stop-color="#FFA801"/>
      <stop offset="1" stop-color="#FF9102"/>
    </linearGradient>
    <linearGradient id="n" x1="11.302" y1="2.967" x2="12.327" y2="2.967" gradientUnits="userSpaceOnUse">
      <stop stop-color="#FFC200" stop-opacity="0"/>
      <stop offset=".203" stop-color="#FB0" stop-opacity=".203"/>
      <stop offset=".499" stop-color="#FFA700" stop-opacity=".499"/>
      <stop offset=".852" stop-color="#F80" stop-opacity=".852"/>
      <stop offset="1" stop-color="#FF7800"/>
    </linearGradient>
    <linearGradient id="o" x1="21.692" y1="5.825" x2="19.288" y2="3.42" gradientUnits="userSpaceOnUse">
      <stop offset="0" stop-color="#008BF2" stop-opacity="0"/>
      <stop offset="1" stop-color="#0046E2"/>
    </linearGradient>
    <linearGradient id="p" x1="19.374" y1=".917" x2="19.374" y2="13.935" gradientUnits="userSpaceOnUse">
      <stop stop-color="#FFC200"/>
      <stop offset=".268" stop-color="#FB0"/>
      <stop offset=".659" stop-color="#FFA801"/>
      <stop offset="1" stop-color="#FF9102"/>
    </linearGradient>
    <linearGradient id="q" x1="19.556" y1="2.967" x2="20.58" y2="2.967" gradientUnits="userSpaceOnUse">
      <stop stop-color="#FFC200" stop-opacity="0"/>
      <stop offset=".203" stop-color="#FB0" stop-opacity=".203"/>
      <stop offset=".499" stop-color="#FFA700" stop-opacity=".499"/>
      <stop offset=".852" stop-color="#F80" stop-opacity=".852"/>
      <stop offset="1" stop-color="#FF7800"/>
    </linearGradient>
    <clipPath id="a">
      <path fill="#fff" d="M0 0h31v31H0z"/>
    </clipPath>
  </defs>
</svg>
