<svg width="110" height="110" viewBox="0 0 110 110" fill="none" xmlns="http://www.w3.org/2000/svg">
<circle cx="55" cy="55" r="55" fill="white"/>
<path d="M68.4254 43.197C66.2872 43.1969 64.1602 43.5049 62.1099 44.1116C64.3989 48.3285 65.2636 53.1723 64.5751 57.9208C63.8866 62.6693 61.6818 67.068 58.2895 70.4612L46.1758 82.5749H63.3083C66.2298 82.5749 69.1227 81.9996 71.8219 80.8816C74.521 79.7636 76.9735 78.1249 79.0394 76.0591C81.1053 73.9933 82.744 71.5408 83.862 68.8417C84.98 66.1425 85.5555 63.2496 85.5555 60.3281V43.197H68.4254Z" fill="#009959"/>
<path d="M34.0626 39.0003L46.1736 26.8893L58.2847 39.0003C62.4561 43.1717 64.7996 48.8294 64.7996 54.7288C64.7996 60.6281 62.4561 66.2858 58.2847 70.4572L46.1733 82.5686L34.0623 70.4576C29.8908 66.286 27.5472 60.6282 27.5472 54.7288C27.5472 48.8293 29.8908 43.1715 34.0623 39L34.0626 39.0003Z" fill="#6EBD6A"/>
<path d="M55.8317 58.0115L50.7705 60.0312C49.2584 60.6328 47.9486 61.6519 46.9938 62.9697V58.9233C46.989 57.5302 47.4044 56.168 48.1857 55.0146C48.967 53.8612 50.0779 52.9702 51.3734 52.4578L56.4341 50.4381C56.6349 50.3578 56.7957 50.201 56.8809 50.0022C56.9661 49.8033 56.9689 49.5788 56.8886 49.3779C56.8083 49.1771 56.6514 49.0164 56.4526 48.9311C56.2538 48.8459 56.0293 48.8431 55.8284 48.9234L50.7705 50.9408C49.2583 51.5422 47.9484 52.5614 46.9938 53.8793V49.8306C46.9889 48.4374 47.4042 47.0752 48.1855 45.9218C48.9668 44.7684 50.0778 43.8774 51.3734 43.3651C51.5742 43.2848 51.7349 43.128 51.8202 42.9292C51.9054 42.7303 51.9082 42.5058 51.8279 42.3049C51.7475 42.1041 51.5907 41.9434 51.3919 41.8581C51.1931 41.7729 50.9685 41.7701 50.7677 41.8505C49.2554 42.4518 47.9454 43.471 46.9905 44.7889V35.6613C46.9905 35.5542 46.9694 35.4482 46.9285 35.3493C46.8875 35.2504 46.8274 35.1605 46.7517 35.0848C46.676 35.009 46.5861 34.949 46.4872 34.908C46.3883 34.867 46.2823 34.8459 46.1752 34.8459C46.0681 34.8459 45.9621 34.867 45.8632 34.908C45.7643 34.949 45.6744 35.009 45.5987 35.0848C45.5229 35.1605 45.4629 35.2504 45.4219 35.3493C45.3809 35.4482 45.3598 35.5542 45.3598 35.6613V44.7889C44.4054 43.4708 43.0955 42.4516 41.5832 41.8505C41.3823 41.7701 41.1578 41.7729 40.959 41.8581C40.7601 41.9434 40.6033 42.1041 40.523 42.3049C40.4427 42.5058 40.4454 42.7303 40.5307 42.9292C40.6159 43.128 40.7766 43.2848 40.9775 43.3651C42.273 43.8774 43.3839 44.7684 44.1652 45.9218C44.9465 47.0753 45.3619 48.4375 45.3571 49.8306V53.8793C44.4026 52.5612 43.0927 51.542 41.5804 50.9408L36.5257 48.9211C36.3249 48.8408 36.1003 48.8436 35.9015 48.9288C35.7027 49.014 35.5459 49.1748 35.4655 49.3756C35.3852 49.5765 35.388 49.801 35.4732 49.9998C35.5584 50.1987 35.7192 50.3555 35.92 50.4358L40.9822 52.4555C42.2783 52.9678 43.3897 53.8591 44.1713 55.0129C44.9529 56.1668 45.3682 57.5296 45.3631 58.9233V62.9721C44.4084 61.6542 43.0986 60.635 41.5864 60.0336L36.5257 58.0115C36.4263 57.9717 36.3199 57.9519 36.2128 57.9533C36.1057 57.9546 35.9999 57.977 35.9015 58.0192C35.803 58.0614 35.7139 58.1226 35.6391 58.1992C35.5643 58.2759 35.5053 58.3665 35.4655 58.466C35.4258 58.5655 35.406 58.6718 35.4073 58.7789C35.4086 58.886 35.431 58.9918 35.4732 59.0902C35.5154 59.1887 35.5766 59.2778 35.6533 59.3526C35.7299 59.4274 35.8206 59.4864 35.92 59.5262L40.9822 61.5459C42.2776 62.0582 43.3885 62.9493 44.1698 64.1027C44.9511 65.2561 45.3665 66.6182 45.3617 68.0113V72.9384C45.3617 73.1546 45.4476 73.362 45.6005 73.5149C45.7534 73.6678 45.9608 73.7537 46.1771 73.7537C46.3933 73.7537 46.6007 73.6678 46.7536 73.5149C46.9065 73.362 46.9924 73.1546 46.9924 72.9384V68.0113C46.9876 66.6182 47.403 65.2561 48.1843 64.1027C48.9656 62.9493 50.0765 62.0582 51.372 61.5459L56.4327 59.5262C56.5321 59.4864 56.6228 59.4274 56.6995 59.3526C56.7761 59.2778 56.8373 59.1887 56.8795 59.0902C56.9217 58.9918 56.9441 58.886 56.9454 58.7789C56.9467 58.6718 56.927 58.5655 56.8872 58.466C56.8474 58.3665 56.7884 58.2759 56.7136 58.1992C56.6388 58.1226 56.5497 58.0614 56.4512 58.0192C56.3528 57.977 56.247 57.9546 56.1399 57.9533C56.0328 57.9519 55.9265 57.9717 55.827 58.0115H55.8317Z" fill="#009959"/>
<path d="M79.9276 48.8251C79.7746 48.6723 79.5673 48.5864 79.351 48.5864C79.1348 48.5864 78.9274 48.6723 78.7745 48.8251L72.3202 55.2798C72.577 53.6726 72.3715 52.0255 71.7276 50.5308C71.6422 50.332 71.4815 50.1753 71.2806 50.0951C71.0797 50.0149 70.8552 50.0177 70.6564 50.1031C70.4577 50.1884 70.301 50.3492 70.2207 50.55C70.1405 50.7509 70.1434 50.9754 70.2287 51.1742C70.783 52.4526 70.9389 53.8685 70.676 55.2368C70.4131 56.6052 69.7436 57.8625 68.7551 58.8445L66.0216 61.5789C65.9459 61.6547 65.8859 61.7446 65.845 61.8436C65.8041 61.9425 65.7831 62.0486 65.7832 62.1557C65.7833 62.2627 65.8045 62.3688 65.8455 62.4677C65.8866 62.5665 65.9467 62.6564 66.0225 62.732C66.0983 62.8077 66.1882 62.8677 66.2872 62.9086C66.3861 62.9495 66.4922 62.9705 66.5992 62.9704C66.7063 62.9703 66.8123 62.9491 66.9112 62.9081C67.0101 62.867 67.1 62.8069 67.1756 62.7311L69.9114 59.9948C70.8935 59.0076 72.1503 58.3392 73.5178 58.0768C74.8854 57.8144 76.3003 57.9702 77.578 58.5239C77.6765 58.5667 77.7824 58.5895 77.8897 58.5912C77.9971 58.5929 78.1037 58.5734 78.2034 58.5338C78.3032 58.4942 78.3942 58.4353 78.4711 58.3605C78.548 58.2856 78.6095 58.1963 78.6518 58.0977C78.6942 57.9991 78.7166 57.8931 78.7179 57.7857C78.7192 57.6784 78.6993 57.5719 78.6593 57.4723C78.6193 57.3727 78.56 57.2819 78.4849 57.2053C78.4098 57.1286 78.3202 57.0675 78.2214 57.0256C76.7271 56.3814 75.0802 56.1758 73.4733 56.4329L79.9276 49.9777C80.0803 49.8248 80.166 49.6175 80.166 49.4014C80.166 49.1853 80.0803 48.978 79.9276 48.8251Z" fill="#6EBD6A"/>
</svg>
